<svg width="474" height="233" viewBox="0 0 474 233" fill="none" xmlns="http://www.w3.org/2000/svg">
<path d="M87.014 232.762L87.292 78.472L95.632 76.526L19.182 166.876L13.344 159.648L129.826 158.536V171.602L10.286 171.324L6.394 162.984L85.902 68.186H101.47L101.192 230.26L87.014 232.762Z" fill="#1E1E1E"/>
<ellipse cx="237" cy="161.875" rx="87.5" ry="30.625" stroke="#1E1E1E" stroke-width="12"/>
<path d="M237 157.5V17.5" stroke="#898989" stroke-width="12" stroke-linecap="round"/>
<path d="M236.999 30.625L284.445 54.3475C298.104 61.1773 304.934 64.5922 304.934 70C304.934 75.4078 298.104 78.8227 284.445 85.6525L236.999 109.375" stroke="#898989" stroke-width="12" stroke-linecap="round"/>
<path d="M429.014 232.762L429.292 78.472L437.632 76.526L361.182 166.876L355.344 159.648L471.826 158.536V171.602L352.286 171.324L348.394 162.984L427.902 68.186H443.47L443.192 230.26L429.014 232.762Z" fill="#1E1E1E"/>
</svg>
