<svg width="1607" height="404" viewBox="0 0 1607 404" fill="none" xmlns="http://www.w3.org/2000/svg">
<g opacity="0.4">
<path opacity="0.5" fill-rule="evenodd" clip-rule="evenodd" d="M186.519 288.293C272.284 335.592 401.609 295.236 515.885 292.012C633.119 288.703 761.25 377.14 863.611 269.187C981.587 144.765 824.329 -8.54447 928.212 -142.843C1060.32 -313.622 1399.58 -302.803 1447.62 -485.812C1490.64 -649.665 1185.69 -551.627 1038.77 -563.956C965.522 -570.102 883.44 -537.772 808.25 -539.466C724.416 -541.354 665.617 -588.49 576.479 -574.369C416.351 -549.003 228.853 -568.121 94.9523 -426.469C-31.2609 -292.95 0.0219114 -118.436 17.3841 17.0919C32.7806 137.275 90.1517 235.147 186.519 288.293Z" stroke="#C8A070"/>
<path fill-rule="evenodd" clip-rule="evenodd" d="M229.178 334.144C314.943 381.443 444.268 341.087 558.544 337.863C675.778 334.554 803.909 422.991 906.27 315.038C1024.25 190.616 866.988 37.3066 970.872 -96.9914C1102.97 -267.771 1442.24 -256.952 1490.28 -439.961C1533.3 -603.814 1228.35 -505.776 1081.43 -518.105C1008.18 -524.251 926.099 -491.921 850.909 -493.615C767.075 -495.503 708.276 -542.639 619.138 -528.518C459.01 -503.152 271.512 -522.27 137.611 -380.618C11.3983 -247.099 42.6811 -72.5844 60.0433 62.943C75.4398 183.127 132.811 280.998 229.178 334.144Z" stroke="#C8A070"/>
<path opacity="0.2" fill-rule="evenodd" clip-rule="evenodd" d="M162.607 264.381C248.372 311.679 377.697 271.324 491.973 268.099C609.207 264.791 737.338 353.227 839.699 245.274C957.675 120.852 800.417 -32.4568 904.301 -166.755C1036.4 -337.534 1375.67 -326.716 1423.71 -509.724C1466.73 -673.578 1161.78 -575.539 1014.86 -587.868C941.61 -594.014 859.528 -561.684 784.338 -563.378C700.504 -565.266 641.705 -612.402 552.567 -598.281C392.439 -572.915 204.941 -592.034 71.0403 -450.382C-55.173 -316.862 -23.8901 -142.348 -6.52793 -6.82048C8.86859 113.363 66.2397 211.235 162.607 264.381Z" stroke="#C8A070"/>
<path opacity="0.4" fill-rule="evenodd" clip-rule="evenodd" d="M174.563 276.337C260.328 323.636 389.653 283.28 503.928 280.056C621.162 276.748 749.294 365.184 851.654 257.231C969.631 132.809 812.372 -20.5004 916.256 -154.798C1048.36 -325.578 1387.62 -314.759 1435.67 -497.768C1478.68 -661.622 1173.73 -563.583 1026.81 -575.912C953.566 -582.058 871.483 -549.728 796.294 -551.422C712.459 -553.31 653.661 -600.446 564.523 -586.325C404.395 -560.959 216.897 -580.077 82.9961 -438.425C-43.217 -304.906 -11.9342 -130.391 5.42796 5.13602C20.8245 125.32 78.1956 223.191 174.563 276.337Z" stroke="#C8A070"/>
</g>
</svg>
