<?xml version="1.0"?>
<svg xmlns="http://www.w3.org/2000/svg" xmlns:xlink="http://www.w3.org/1999/xlink" version="1.1" xml:space="preserve">
  <defs>
    <symbol id="email" width="100%" height="100%" viewBox="0 0 22 18">
      <path fill-rule="evenodd" clip-rule="evenodd" d="M1.37868 1.71193C0.5 2.59061 0.5 4.00482 0.5 6.83325V11.1666C0.5 13.995 0.5 15.4092 1.37868 16.2879C2.25736 17.1666 3.67157 17.1666 6.5 17.1666H15.5C18.3284 17.1666 19.7426 17.1666 20.6213 16.2879C21.5 15.4092 21.5 13.995 21.5 11.1666V6.83325C21.5 4.00483 21.5 2.59061 20.6213 1.71193C19.7426 0.833252 18.3284 0.833252 15.5 0.833252H6.5C3.67157 0.833252 2.25736 0.833252 1.37868 1.71193ZM4.5547 4.66787C4.09517 4.36152 3.4743 4.48569 3.16795 4.94522C2.8616 5.40475 2.98577 6.02562 3.4453 6.33197L9.8906 10.6288C10.5624 11.0767 11.4376 11.0767 12.1094 10.6288L18.5547 6.33197C19.0142 6.02562 19.1384 5.40475 18.8321 4.94522C18.5257 4.48569 17.9048 4.36152 17.4453 4.66787L11 8.96474L4.5547 4.66787Z" fill="currentColor" />
    </symbol>
    <symbol id="phone" width="100%" height="100%" viewBox="0 0 22 22">
      <path d="M0.599998 1.9001C0.599998 1.18213 1.18203 0.600098 1.9 0.600098H4.69873C5.33422 0.600098 5.87657 1.05953 5.98105 1.68638L6.94215 7.45301C7.03597 8.01596 6.75167 8.57426 6.24122 8.82949L4.22864 9.83578C5.67982 13.4419 8.55818 16.3203 12.1643 17.7715L13.1706 15.7589C13.4258 15.2484 13.9841 14.9641 14.5471 15.0579L20.3137 16.019C20.9406 16.1235 21.4 16.6659 21.4 17.3014V20.1001C21.4 20.8181 20.818 21.4001 20.1 21.4001H17.5C8.16639 21.4001 0.599998 13.8337 0.599998 4.5001V1.9001Z" fill="currentColor" />
    </symbol>
    <symbol id="menu" width="100%" height="100%" viewBox="0 0 20 18">
      <path fill-rule="evenodd" clip-rule="evenodd" d="M0.199951 2.0001C0.199951 1.2269 0.826752 0.600098 1.59995 0.600098H18.4C19.1732 0.600098 19.8 1.2269 19.8 2.0001C19.8 2.7733 19.1732 3.4001 18.4 3.4001H1.59995C0.826752 3.4001 0.199951 2.7733 0.199951 2.0001Z" fill="currentColor" />
      <path fill-rule="evenodd" clip-rule="evenodd" d="M0.199951 9.0001C0.199951 8.2269 0.826752 7.6001 1.59995 7.6001H18.4C19.1732 7.6001 19.8 8.2269 19.8 9.0001C19.8 9.7733 19.1732 10.4001 18.4 10.4001H1.59995C0.826752 10.4001 0.199951 9.7733 0.199951 9.0001Z" fill="currentColor" />
      <path fill-rule="evenodd" clip-rule="evenodd" d="M0.199951 16.0001C0.199951 15.2269 0.826752 14.6001 1.59995 14.6001H18.4C19.1732 14.6001 19.8 15.2269 19.8 16.0001C19.8 16.7733 19.1732 17.4001 18.4 17.4001H1.59995C0.826752 17.4001 0.199951 16.7733 0.199951 16.0001Z" fill="currentColor" />
    </symbol>
    <symbol id="arrow-right" width="100%" height="100%" viewBox="0 0 15 10">
      <path d="M13 5L13.7071 4.29289L14.4142 5L13.7071 5.70711L13 5ZM1 6C0.447715 6 0 5.55228 0 5C0 4.44772 0.447715 4 1 4V6ZM9.70711 0.292893L13.7071 4.29289L12.2929 5.70711L8.29289 1.70711L9.70711 0.292893ZM13.7071 5.70711L9.70711 9.70711L8.29289 8.29289L12.2929 4.29289L13.7071 5.70711ZM13 6H1V4H13V6Z" fill="currentColor" />
    </symbol>
    <symbol id="arrow-left" width="100%" height="100%" viewBox="0 0 15 10">
      <path d="M2 5L1.29289 4.29289L0.585786 5L1.29289 5.70711L2 5ZM14 6C14.5523 6 15 5.55228 15 5C15 4.44772 14.5523 4 14 4V6ZM5.29289 0.292893L1.29289 4.29289L2.70711 5.70711L6.70711 1.70711L5.29289 0.292893ZM1.29289 5.70711L5.29289 9.70711L6.70711 8.29289L2.70711 4.29289L1.29289 5.70711ZM2 6H14V4H2V6Z" fill="currentColor" />
    </symbol>
    <symbol id="gal-ochka" width="100%" height="100%" viewBox="0 0 12 10">
      <path d="M6.23497 8.79946C5.9649 9.16602 5.54433 9.3913 5.0896 9.41369C4.63487 9.43632 4.19445 9.25304 3.88975 8.91464L1.15929 5.88456C0.725328 5.40328 0.763876 4.6614 1.24515 4.22744C1.72689 3.79348 2.46831 3.83226 2.90227 4.31377L4.83407 6.45771C4.8627 6.48956 4.90425 6.50664 4.94695 6.50456C4.98988 6.50249 5.02912 6.48102 5.05475 6.44686L9.02546 1.0614C9.40979 0.539728 10.1443 0.428699 10.6662 0.813259C11.1876 1.19782 11.2984 1.93232 10.9139 2.45376L6.23497 8.79946Z" fill="currentColor" />
    </symbol>
    <symbol id="to-right" width="100%" height="100%" viewBox="0 0 8 14">
      <path d="M5.63663 7.00019L1.15148 2.51504C0.7935 2.15706 0.7935 1.57666 1.15148 1.21868C1.50946 0.8607 2.08986 0.8607 2.44784 1.21868L7.58118 6.35201C7.93916 6.70999 7.93916 7.29039 7.58118 7.64838L2.44784 12.7817C2.08986 13.1397 1.50946 13.1397 1.15148 12.7817C0.7935 12.4237 0.7935 11.8433 1.15148 11.4853L5.63663 7.00019Z" fill="currentColor" />
    </symbol>
    <symbol id="to-left" width="100%" height="100%" viewBox="0 0 8 14">
      <path d="M2.36337 7.00019L6.84852 2.51504C7.2065 2.15706 7.2065 1.57666 6.84852 1.21868C6.49054 0.8607 5.91014 0.8607 5.55216 1.21868L0.418823 6.35201C0.0608425 6.70999 0.0608425 7.29039 0.418823 7.64838L5.55216 12.7817C5.91014 13.1397 6.49054 13.1397 6.84852 12.7817C7.2065 12.4237 7.2065 11.8433 6.84852 11.4853L2.36337 7.00019Z" fill="currentColor" />
    </symbol>
    <symbol id="play" width="100%" height="100%" viewBox="0 0 32 38">
      <path d="M5.27275 38C4.93519 38 4.61146 37.8332 4.37278 37.5363C4.13409 37.2393 4 36.8366 4 36.4167V1.58307C4.00004 1.30794 4.05771 1.03756 4.16732 0.79859C4.27694 0.559623 4.43472 0.360315 4.62511 0.220312C4.81551 0.0803081 5.03194 0.00444103 5.25308 0.000189119C5.47422 -0.00406279 5.69243 0.0634472 5.88621 0.196064L31.3411 17.6129C31.5407 17.7495 31.7071 17.9503 31.823 18.1943C31.9389 18.4383 32 18.7165 32 18.9999C32 19.2833 31.9389 19.5615 31.823 19.8054C31.7071 20.0494 31.5407 20.2502 31.3411 20.3869L5.88621 37.8037C5.69829 37.9324 5.48727 37.9999 5.27275 38Z" fill="currentColor" />
    </symbol>
    <symbol id="cross" width="100%" height="100%" viewBox="0 0 16 16" fill="none">
      <path d="M1 15L15 1M1 1L15 15" stroke="currentColor" stroke-width="2" stroke-linecap="round" stroke-linejoin="round" />
    </symbol>
    <symbol id="heart" width="100%" height="100%" viewBox="0 0 42 42" fill="none">
      <path d="M15.683 33.094L16.3021 32.3087L15.683 33.094ZM21 9.62605L20.2795 10.3195C20.468 10.5154 20.7282 10.626 21 10.626C21.2718 10.626 21.532 10.5154 21.7205 10.3195L21 9.62605ZM26.317 33.094L26.9361 33.8793L26.317 33.094ZM16.3021 32.3087C13.6683 30.2323 10.7333 28.165 8.40834 25.547C6.11765 22.9676 4.5 19.9328 4.5 15.9899H2.5C2.5 20.557 4.39935 24.0447 6.91292 26.8751C9.39219 29.6668 12.5488 31.8965 15.0639 33.8793L16.3021 32.3087ZM4.5 15.9899C4.5 12.1089 6.69342 8.83818 9.71271 7.45806C12.669 6.10675 16.5981 6.49464 20.2795 10.3195L21.7205 8.93258C17.5272 4.5759 12.7063 3.89063 8.88125 5.63908C5.11922 7.35872 2.5 11.3607 2.5 15.9899H4.5ZM15.0639 33.8793C15.9632 34.5882 16.9087 35.3279 17.8621 35.885C18.8151 36.4419 19.8711 36.8749 21 36.8749V34.8749C20.3789 34.8749 19.6849 34.6337 18.8712 34.1582C18.0578 33.6829 17.2198 33.0321 16.3021 32.3087L15.0639 33.8793ZM26.9361 33.8793C29.4512 31.8965 32.6078 29.6668 35.0871 26.8751C37.6006 24.0447 39.5 20.557 39.5 15.9899H37.5C37.5 19.9328 35.8824 22.9676 33.5917 25.547C31.2667 28.165 28.3317 30.2323 25.6979 32.3087L26.9361 33.8793ZM39.5 15.9899C39.5 11.3607 36.8808 7.35872 33.1187 5.63908C29.2937 3.89063 24.4728 4.5759 20.2795 8.93258L21.7205 10.3195C25.4019 6.49464 29.331 6.10675 32.2873 7.45806C35.3066 8.83818 37.5 12.1089 37.5 15.9899H39.5ZM25.6979 32.3087C24.7802 33.0321 23.9422 33.6829 23.1288 34.1582C22.3151 34.6337 21.6211 34.8749 21 34.8749V36.8749C22.1289 36.8749 23.1849 36.4419 24.1379 35.885C25.0913 35.3279 26.0368 34.5882 26.9361 33.8793L25.6979 32.3087Z" fill="currentColor" />
    </symbol>
    <symbol id="wineglass" width="100%" height="100%" viewBox="0 0 42 42" fill="none">
      <path d="M21 25.5L35.9033 10.2617C37.7342 8.38965 36.3999 5.25 33.7733 5.25H8.22666C5.60015 5.25 4.26578 8.38965 6.09666 10.2617L21 25.5ZM21 25.5V36.75M21 36.75H28.4268M21 36.75H13.5732M13.0781 17.0625H28.9219" stroke="currentColor" stroke-width="2" stroke-linecap="round" />
    </symbol>
    <symbol id="rabbit" width="100%" height="100%" viewBox="0 0 42 42" fill="none">
      <path d="M39.9928 3.82504C39.965 3.11448 39.5419 2.47925 38.8971 2.17837C38.2524 1.87757 37.4937 1.9624 36.9313 2.39754C36.7154 2.56475 31.6121 6.56041 28.5702 13.0836C27.3998 15.5929 26.7297 18.0736 26.327 20.2187C24.6942 19.5018 22.8943 19.0971 21.0001 19.0971C19.1058 19.0971 17.3059 19.5018 15.6732 20.2187C15.2704 18.0737 14.6003 15.5929 13.4299 13.0836C10.388 6.56041 5.28468 2.56475 5.0687 2.39754C4.50635 1.96247 3.74763 1.87757 3.1029 2.17845C2.45817 2.47925 2.03572 3.11448 2.00722 3.82504C1.99646 4.09735 1.77796 10.575 4.81985 17.0983C6.35311 20.3859 8.39054 22.9869 10.0808 24.8229C8.58432 26.9737 7.70017 29.5818 7.70017 32.395C7.70017 34.946 8.42594 37.4242 9.79711 39.563C9.97887 39.846 10.2854 40 10.597 40C10.7731 40 10.9517 39.9518 11.1094 39.8499C11.5508 39.5668 11.6806 38.9791 11.3969 38.5376C10.2214 36.7054 9.60014 34.5812 9.60014 32.395C9.60014 26.1099 14.7136 20.9971 21 20.9971C27.2864 20.9971 32.3998 26.11 32.3998 32.395C32.3998 34.5794 31.7798 36.7016 30.6075 38.5326C30.3238 38.974 30.4536 39.5611 30.8951 39.8442C31.3308 40.128 31.923 40 32.2067 39.5567C33.576 37.4205 34.2999 34.9442 34.2999 32.3951C34.2999 29.5819 33.4157 26.9744 31.9186 24.823C33.6089 22.987 35.6463 20.3859 37.1796 17.0984C40.2221 10.575 40.0036 4.09735 39.9928 3.82504ZM13.3133 21.598L8.2594 11.2197C8.02947 10.746 7.46015 10.5541 6.98894 10.7815C6.51773 11.0114 6.32076 11.5795 6.55068 12.0519L11.8086 22.8482C11.6395 23.011 11.4571 23.1592 11.2962 23.3308C9.74642 21.6189 7.92119 19.2522 6.54244 16.2952C3.6596 10.1146 3.90593 3.89978 3.90593 3.89978C3.90593 3.89978 8.8256 7.70604 11.7085 13.8867C12.9125 16.4687 13.5528 19.0268 13.9112 21.1636C13.7022 21.296 13.5141 21.4549 13.3133 21.598ZM30.7045 23.3315C30.5442 23.1598 30.3612 23.0117 30.1921 22.8489L35.45 12.0526C35.6799 11.5808 35.4829 11.0121 35.0117 10.7821C34.5405 10.5548 33.9718 10.7467 33.7412 11.2204L28.6873 21.5987C28.4865 21.4555 28.2985 21.2966 28.0895 21.1642C28.4473 19.0268 29.0876 16.4688 30.2922 13.8873C33.1744 7.70671 38.0947 3.90045 38.0947 3.90045C38.0947 3.90045 38.341 10.1153 35.4582 16.2953C34.0788 19.2522 32.2535 21.619 30.7045 23.3315Z" fill="currentColor" />
    </symbol>
    <symbol id="stars" width="100%" height="100%" viewBox="0 0 42 42" fill="none">
      <path d="M17.484 28.875L15.7763 29.7047C12.3097 30.663 10.5764 31.1421 9.64201 30.1336C8.70768 29.1251 9.19111 27.2968 10.158 23.6403L10.4081 22.6943C10.6829 21.6552 10.8202 21.1357 10.7512 20.6205C10.6821 20.1053 10.4144 19.6527 9.87892 18.7477L9.39145 17.9237C7.50725 14.7387 6.56514 13.1462 7.19435 11.8791C7.82355 10.6119 9.60737 10.5094 13.175 10.3042L14.098 10.2511C15.1118 10.1928 15.6187 10.1637 16.0607 9.92784C16.5027 9.692 16.8298 9.27616 17.484 8.44448L18.0796 7.6873C20.3818 4.76059 21.5328 3.29723 22.8561 3.52263C24.1793 3.74802 24.7983 5.5129 26.0363 9.04264L26.3566 9.95583C26.7085 10.9589 26.8844 11.4604 27.2266 11.8298C27.5689 12.1993 28.0388 12.3948 28.9785 12.7859L29.8341 13.1419C33.1411 14.5181 34.7946 15.2062 34.9832 16.6126C35.1441 17.8125 34.1477 18.8573 32.1113 20.6205" stroke="currentColor" stroke-width="2" />
      <path d="M26.6903 18.7057C24.9637 16.6398 24.1004 15.6069 23.108 15.766C22.1156 15.9251 21.6513 17.1709 20.7227 19.6625L20.4825 20.3071C20.2187 21.0151 20.0867 21.3691 19.83 21.6299C19.5733 21.8907 19.2209 22.0287 18.5161 22.3047L17.8744 22.5561C15.3942 23.5275 14.154 24.0132 14.0126 25.006C13.8712 25.9987 14.9221 26.8411 17.024 28.5258L17.5677 28.9616C18.165 29.4404 18.4636 29.6797 18.6365 30.0074C18.8094 30.335 18.8369 30.7139 18.892 31.4716L18.9421 32.1614C19.1358 34.8276 19.2327 36.1608 20.1377 36.6152C21.0426 37.0697 22.1564 36.3445 24.384 34.8941L24.9603 34.5189C25.5933 34.1067 25.9098 33.9007 26.2733 33.8424C26.6369 33.7841 27.0063 33.8802 27.7451 34.0724L28.4178 34.2474C31.0177 34.9239 32.3177 35.2621 33.0185 34.5502C33.7192 33.8383 33.3567 32.5478 32.6315 29.9667L32.4439 29.2989C32.2379 28.5654 32.1348 28.1987 32.1866 27.835C32.2384 27.4714 32.4392 27.1519 32.8408 26.5131L33.2064 25.9314C34.6196 23.6832 35.3261 22.5591 34.8542 21.6646C34.3823 20.7702 33.0445 20.6978 30.3688 20.553L29.6765 20.5155C28.9162 20.4744 28.536 20.4538 28.2045 20.2873C27.8729 20.1208 27.6276 19.8273 27.137 19.2402L26.6903 18.7057Z" stroke="currentColor" stroke-width="2" />
    </symbol>
    <symbol id="confetti" width="100%" height="100%" viewBox="0 0 42 42" fill="none">
      <path d="M7.02088 27.5831L9.97749 18.7133C11.318 14.6917 11.9883 12.6809 13.5742 12.3065C15.1602 11.9321 16.6589 13.4309 19.6564 16.4284L25.5697 22.3416C28.5672 25.3391 30.0659 26.8379 29.6915 28.4238C29.3171 30.0098 27.3064 30.68 23.2848 32.0206L14.4149 34.9772C9.57546 36.5903 7.15572 37.3969 5.87843 36.1196C4.60114 34.8423 5.40772 32.4226 7.02088 27.5831Z" stroke="currentColor" stroke-width="2" stroke-linecap="round" />
      <path d="M21.4114 32.1059C21.4114 32.1059 20.0845 28.1139 20.0845 25.4718C20.0845 22.8298 21.4114 18.8378 21.4114 18.8378M14.1139 34.0961C14.1139 34.0961 12.9934 29.2803 12.7871 26.1352C12.4464 20.9391 14.1139 12.8672 14.1139 12.8672" stroke="currentColor" stroke-width="2" stroke-linecap="round" />
      <path d="M25.3916 17.5106L25.6436 16.2507C25.898 14.9787 26.8145 13.9405 28.0452 13.5302C29.2759 13.12 30.1924 12.0818 30.4468 10.8097L30.6988 9.5498" stroke="currentColor" stroke-width="1.5" stroke-linecap="round" />
      <path d="M30.7461 21.4438L31.1186 21.6589C32.2685 22.3228 33.7143 22.1764 34.7078 21.2954C35.6075 20.4976 36.8887 20.2953 37.9905 20.777L38.5006 21" stroke="currentColor" stroke-width="1.5" stroke-linecap="round" />
      <path d="M18.4361 5.25C17.8454 6.2161 17.9935 7.46102 18.7941 8.2617L18.9654 8.43299C19.6535 9.12102 19.9072 10.1318 19.6256 11.0632" stroke="currentColor" stroke-width="1.5" stroke-linecap="round" />
      <path d="M23.7318 7.69347C24.0836 7.34162 24.2596 7.16569 24.463 7.10121C24.635 7.04667 24.8198 7.04667 24.9918 7.10121C25.1952 7.16569 25.3712 7.34162 25.723 7.69347C26.0748 8.04532 26.2508 8.22124 26.3153 8.42466C26.3698 8.59671 26.3698 8.78143 26.3153 8.95348C26.2508 9.1569 26.0748 9.33282 25.723 9.68467C25.3712 10.0365 25.1952 10.2124 24.9918 10.2769C24.8198 10.3315 24.635 10.3315 24.463 10.2769C24.2596 10.2124 24.0836 10.0365 23.7318 9.68467C23.3799 9.33282 23.204 9.1569 23.1395 8.95348C23.085 8.78143 23.085 8.59671 23.1395 8.42466C23.204 8.22124 23.3799 8.04532 23.7318 7.69347Z" fill="currentColor" />
      <path d="M34.0694 13.0694C34.4988 12.64 34.7135 12.4252 34.9558 12.3319C35.2392 12.2227 35.5532 12.2227 35.8366 12.3319C36.0789 12.4252 36.2936 12.64 36.723 13.0694C37.1524 13.4988 37.3672 13.7135 37.4605 13.9558C37.5697 14.2392 37.5697 14.5532 37.4605 14.8366C37.3672 15.0789 37.1524 15.2936 36.723 15.723C36.2936 16.1524 36.0789 16.3672 35.8366 16.4605C35.5532 16.5697 35.2392 16.5697 34.9558 16.4605C34.7135 16.3672 34.4988 16.1524 34.0694 15.723C33.64 15.2936 33.4252 15.0789 33.3319 14.8366C33.2227 14.5532 33.2227 14.2392 33.3319 13.9558C33.4252 13.7135 33.64 13.4988 34.0694 13.0694Z" fill="currentColor" />
      <path d="M12.1226 6.89651C12.4892 6.52994 13.0835 6.52994 13.4501 6.89651C13.8166 7.26308 13.8166 7.85741 13.4501 8.22398C13.0835 8.59055 12.4892 8.59055 12.1226 8.22398C11.756 7.85741 11.756 7.26308 12.1226 6.89651Z" fill="currentColor" />
      <path d="M33.3521 26.7984C33.7186 26.4318 34.313 26.4318 34.6795 26.7984C35.0461 27.1649 35.0461 27.7593 34.6795 28.1258C34.313 28.4924 33.7186 28.4924 33.3521 28.1258C32.9855 27.7593 32.9855 27.1649 33.3521 26.7984Z" fill="currentColor" />
      <path d="M30.6248 17.0474C30.9913 16.6808 31.5857 16.6808 31.9522 17.0474C32.3188 17.414 32.3188 18.0083 31.9522 18.3749C31.5857 18.7414 30.9913 18.7414 30.6248 18.3749C30.2582 18.0083 30.2582 17.414 30.6248 17.0474Z" fill="currentColor" />
    </symbol>
    <symbol id="microphone" width="100%" height="100%" viewBox="0 0 42 42" fill="none">
      <path d="M12.25 14C12.25 9.16751 16.1675 5.25 21 5.25C25.8325 5.25 29.75 9.16751 29.75 14V19.25C29.75 24.0825 25.8325 28 21 28C16.1675 28 12.25 24.0825 12.25 19.25V14Z" stroke="currentColor" stroke-width="2" />
      <path d="M22.75 14L29.75 14" stroke="currentColor" stroke-width="2" stroke-linecap="round" />
      <path d="M22.75 19.25L29.75 19.25" stroke="currentColor" stroke-width="2" stroke-linecap="round" />
      <path d="M35 17.5V19.25C35 26.982 28.732 33.25 21 33.25C13.268 33.25 7 26.982 7 19.25V17.5" stroke="currentColor" stroke-width="2" stroke-linecap="round" />
      <path d="M21 33.25V38.5" stroke="currentColor" stroke-width="2" stroke-linecap="round" />
    </symbol>
    <symbol id="users" width="100%" height="100%" viewBox="0 0 42 42" fill="none">
      <circle cx="21" cy="10.5" r="7" stroke="currentColor" stroke-width="2" />
      <path d="M31.5 15.75C34.3995 15.75 36.75 13.7912 36.75 11.375C36.75 8.95875 34.3995 7 31.5 7" stroke="currentColor" stroke-width="2" stroke-linecap="round" />
      <path d="M10.5 15.75C7.6005 15.75 5.25 13.7912 5.25 11.375C5.25 8.95875 7.6005 7 10.5 7" stroke="currentColor" stroke-width="2" stroke-linecap="round" />
      <ellipse cx="21" cy="29.75" rx="10.5" ry="7" stroke="currentColor" stroke-width="2" />
      <path d="M35 33.25C38.0699 32.5768 40.25 30.8719 40.25 28.875C40.25 26.8781 38.0699 25.1732 35 24.5" stroke="currentColor" stroke-width="2" stroke-linecap="round" />
      <path d="M7 33.25C3.93007 32.5768 1.75 30.8719 1.75 28.875C1.75 26.8781 3.93007 25.1732 7 24.5" stroke="currentColor" stroke-width="2" stroke-linecap="round" />
    </symbol>
    <symbol id="user-hands" width="100%" height="100%" viewBox="0 0 24 24" fill="none">
      <path d="M12 10C14.2091 10 16 8.20914 16 6C16 3.79086 14.2091 2 12 2C9.79086 2 8 3.79086 8 6C8 8.20914 9.79086 10 12 10Z" fill="currentColor" />
      <path d="M8.00007 12.25C5.90904 12.25 4.149 13.8151 3.90469 15.8918L3.25521 21.4124C3.20681 21.8237 3.50106 22.1965 3.91244 22.2449C4.32382 22.2933 4.69654 21.999 4.74494 21.5876L5.39441 16.0671C5.51949 15.0039 6.26894 14.1515 7.25007 13.859L7.25007 18.052C7.25004 18.9505 7.25002 19.6997 7.32998 20.2945C7.41439 20.9223 7.60006 21.4891 8.05553 21.9445C8.511 22.4 9.0778 22.5857 9.70559 22.6701C10.3004 22.7501 11.0496 22.75 11.948 22.75H12.0521C12.9505 22.75 13.6998 22.7501 14.2946 22.6701C14.9223 22.5857 15.4891 22.4 15.9446 21.9445C16.4001 21.4891 16.5858 20.9223 16.6702 20.2945C16.7501 19.6997 16.7501 18.9505 16.7501 18.052L16.7501 13.859C17.7312 14.1515 18.4807 15.0039 18.6057 16.0671L19.2552 21.5876C19.3036 21.999 19.6763 22.2933 20.0877 22.2449C20.4991 22.1965 20.7933 21.8237 20.7449 21.4124L20.0955 15.8918C19.8511 13.8151 18.0911 12.25 16.0001 12.25H8.00007Z" fill="currentColor" />
    </symbol>
    <symbol id="sun-fog" width="100%" height="100%" viewBox="0 0 32 32" fill="none">
      <path d="M10.667 29.3334H21.3337" stroke="currentColor" stroke-width="2" stroke-linecap="round" stroke-linejoin="round" />
      <path d="M6.66699 25.3334H25.3337" stroke="currentColor" stroke-width="2" stroke-linecap="round" stroke-linejoin="round" />
      <path d="M2.66699 21.3334H29.3337" stroke="currentColor" stroke-width="2" stroke-linecap="round" stroke-linejoin="round" />
      <path d="M13.3333 8.45522C14.1674 8.16041 15.065 8 16 8C20.4183 8 24 11.5817 24 16C24 18.0289 23.2447 19.8814 22 21.2916H10C8.75527 19.8814 8 18.0289 8 16C8 15.065 8.16041 14.1674 8.45522 13.3333" stroke="currentColor" stroke-width="2" stroke-linecap="round" />
      <path d="M16 2.66663V3.99996" stroke="currentColor" stroke-width="2" stroke-linecap="round" />
      <path d="M29.333 16L27.9997 16" stroke="currentColor" stroke-width="2" stroke-linecap="round" />
      <path d="M4 16L2.66667 16" stroke="currentColor" stroke-width="2" stroke-linecap="round" />
      <path d="M25.4277 6.57227L24.904 7.09605" stroke="currentColor" stroke-width="2" stroke-linecap="round" />
      <path d="M7.0957 7.0957L6.57192 6.57192" stroke="currentColor" stroke-width="2" stroke-linecap="round" />
    </symbol>
    <symbol id="shield-star" width="100%" height="100%" viewBox="0 0 32 32" fill="none">
      <path d="M4 13.8888C4 9.62539 4 7.49366 4.50335 6.7765C5.00671 6.05934 7.0111 5.37324 11.0199 4.00102L11.7836 3.73958C13.8733 3.02428 14.9181 2.66663 16 2.66663C17.0819 2.66663 18.1267 3.02428 20.2164 3.73958L20.9801 4.00102C24.9889 5.37324 26.9933 6.05934 27.4966 6.7765C28 7.49366 28 9.62539 28 13.8888C28 14.5328 28 15.2312 28 15.9884C28 23.5059 22.348 27.1539 18.8019 28.703C17.84 29.1232 17.359 29.3333 16 29.3333C14.641 29.3333 14.16 29.1232 13.1981 28.703C9.65195 27.1539 4 23.5059 4 15.9884C4 15.2312 4 14.5328 4 13.8888Z" stroke="currentColor" stroke-width="2" />
      <path d="M14.482 11.1512C15.1576 9.93931 15.4953 9.33337 16.0003 9.33337C16.5053 9.33337 16.8431 9.93931 17.5186 11.1512L17.6934 11.4647C17.8854 11.8091 17.9814 11.9813 18.131 12.0949C18.2807 12.2085 18.4671 12.2507 18.8399 12.335L19.1792 12.4118C20.4911 12.7086 21.147 12.857 21.303 13.3588C21.4591 13.8607 21.0119 14.3835 20.1176 15.4293L19.8862 15.6999C19.6321 15.9971 19.505 16.1457 19.4479 16.3295C19.3907 16.5133 19.4099 16.7116 19.4483 17.1081L19.4833 17.4691C19.6185 18.8644 19.6861 19.562 19.2776 19.8722C18.869 20.1823 18.2549 19.8995 17.0266 19.334L16.7089 19.1877C16.3598 19.027 16.1853 18.9466 16.0003 18.9466C15.8153 18.9466 15.6408 19.027 15.2918 19.1877L14.974 19.334C13.7458 19.8995 13.1316 20.1823 12.7231 19.8722C12.3145 19.562 12.3821 18.8644 12.5173 17.4691L12.5523 17.1081C12.5907 16.7116 12.61 16.5133 12.5528 16.3295C12.4956 16.1457 12.3686 15.9971 12.1144 15.6999L11.883 15.4293C10.9887 14.3835 10.5416 13.8607 10.6976 13.3588C10.8537 12.857 11.5096 12.7086 12.8214 12.4118L13.1608 12.335C13.5336 12.2507 13.72 12.2085 13.8696 12.0949C14.0193 11.9813 14.1153 11.8091 14.3072 11.4647L14.482 11.1512Z" stroke="currentColor" stroke-width="2" />
    </symbol>
    <symbol id="like" width="100%" height="100%" viewBox="0 0 32 32" fill="none">
      <path d="M27.9669 16.2469L26.9815 16.0765V16.0765L27.9669 16.2469ZM27.0262 21.6866L26.0408 21.5162V21.5162L27.0262 21.6866ZM9.25036 27.3027L8.25408 27.3889L9.25036 27.3027ZM8.16748 14.7792L9.16376 14.693L8.16748 14.7792ZM18.6599 6.96185L19.6468 7.12354V7.12354L18.6599 6.96185ZM17.7764 12.3546L18.7632 12.5163V12.5163L17.7764 12.3546ZM8.93085 12.9033L8.27807 12.1457L8.27806 12.1457L8.93085 12.9033ZM10.8492 11.2502L11.502 12.0078L11.502 12.0078L10.8492 11.2502ZM14.0241 6.37828L13.0561 6.12719V6.12719L14.0241 6.37828ZM14.6583 3.93314L15.6263 4.18424V4.18424L14.6583 3.93314ZM16.8901 2.75243L16.5843 3.70451L16.5843 3.70451L16.8901 2.75243ZM17.0834 2.81453L17.3893 1.86245L17.3893 1.86245L17.0834 2.81453ZM13.1493 8.61678L14.0313 9.08794L13.1493 8.61678ZM18.5396 4.32999L17.5716 4.58108V4.58109L18.5396 4.32999ZM15.5656 2.84315L15.1315 1.94229V1.94229L15.5656 2.84315ZM5.29546 28.6276L4.29918 28.7137L5.29546 28.6276ZM4 13.6456L4.99628 13.5594C4.95015 13.0259 4.49191 12.6234 3.95689 12.6465C3.42187 12.6696 3 13.11 3 13.6456H4ZM26.9815 16.0765L26.0408 21.5162L28.0115 21.857L28.9522 16.4173L26.9815 16.0765ZM17.66 28.3333H11.4618V30.3333H17.66V28.3333ZM10.2466 27.2166L9.16376 14.693L7.17119 14.8653L8.25408 27.3889L10.2466 27.2166ZM26.0408 21.5162C25.365 25.4236 21.8417 28.3333 17.66 28.3333V30.3333C22.7617 30.3333 27.1611 26.7747 28.0115 21.857L26.0408 21.5162ZM17.6731 6.80017L16.7895 12.1929L18.7632 12.5163L19.6468 7.12354L17.6731 6.80017ZM9.58364 13.6608L11.502 12.0078L10.1964 10.4927L8.27807 12.1457L9.58364 13.6608ZM14.992 6.62938L15.6263 4.18424L13.6904 3.68205L13.0561 6.12719L14.992 6.62938ZM16.5843 3.70451L16.7776 3.7666L17.3893 1.86245L17.196 1.80035L16.5843 3.70451ZM14.0313 9.08794C14.4473 8.30926 14.7702 7.48448 14.992 6.62938L13.0561 6.12719C12.8743 6.82805 12.6093 7.50519 12.2672 8.14561L14.0313 9.08794ZM16.7776 3.7666C17.1861 3.89785 17.4762 4.21341 17.5716 4.58108L19.5075 4.0789C19.2336 3.02288 18.4253 2.19527 17.3893 1.86245L16.7776 3.7666ZM15.6263 4.18424C15.673 4.00423 15.803 3.8388 15.9997 3.74401L15.1315 1.94229C14.4222 2.28408 13.8894 2.91498 13.6904 3.68205L15.6263 4.18424ZM15.9997 3.74401C16.1794 3.65744 16.3909 3.64238 16.5843 3.70451L17.196 1.80035C16.5163 1.58202 15.775 1.63222 15.1315 1.94229L15.9997 3.74401ZM18.8716 14.6456H25.7797V12.6456H18.8716V14.6456ZM6.29175 28.5414L4.99628 13.5594L3.00372 13.7317L4.29918 28.7137L6.29175 28.5414ZM5 28.6836V13.6456H3V28.6836H5ZM4.29918 28.7137C4.28159 28.5103 4.44194 28.3333 4.64894 28.3333V30.3333C5.61691 30.3333 6.37496 29.5038 6.29175 28.5414L4.29918 28.7137ZM19.6468 7.12354C19.8128 6.11004 19.7654 5.07298 19.5075 4.0789L17.5716 4.58109C17.7596 5.3056 17.7941 6.06147 17.6731 6.80017L19.6468 7.12354ZM11.4618 28.3333C10.8299 28.3333 10.3014 27.8493 10.2466 27.2166L8.25408 27.3889C8.39803 29.0536 9.79026 30.3333 11.4618 30.3333V28.3333ZM11.502 12.0078C12.4084 11.2266 13.3855 10.2969 14.0313 9.08794L12.2672 8.14561C11.8054 9.01019 11.07 9.73986 10.1964 10.4927L11.502 12.0078ZM28.9522 16.4173C29.2927 14.4486 27.7788 12.6456 25.7797 12.6456V14.6456C26.5352 14.6456 27.111 15.3278 26.9815 16.0765L28.9522 16.4173ZM4.64894 28.3333C4.8439 28.3333 5 28.4912 5 28.6836H3C3 29.5936 3.73719 30.3333 4.64894 30.3333V28.3333ZM16.7895 12.1929C16.5792 13.4767 17.5688 14.6456 18.8716 14.6456V12.6456C18.8051 12.6456 18.7519 12.5853 18.7632 12.5163L16.7895 12.1929ZM9.16376 14.693C9.12987 14.3011 9.28633 13.917 9.58364 13.6608L8.27806 12.1457C7.49363 12.8217 7.08199 13.8337 7.17119 14.8653L9.16376 14.693Z" fill="currentColor" />
    </symbol>
    <symbol id="chef-heart" width="100%" height="100%" viewBox="0 0 32 32" fill="none">
      <path fill-rule="evenodd" clip-rule="evenodd" d="M9.6708 5.67392C10.7924 3.30597 13.2038 1.66663 16.0003 1.66663C18.7968 1.66663 21.2083 3.30597 22.3299 5.67393C22.4417 5.66908 22.5541 5.66663 22.667 5.66663C26.9012 5.66663 30.3337 9.09911 30.3337 13.3333C30.3337 16.2407 28.7154 18.7683 26.3337 20.0677L26.3337 24.0693C26.3337 25.2673 26.3337 26.2662 26.2271 27.0593C26.1146 27.8963 25.867 28.6521 25.2597 29.2594C24.6524 29.8666 23.8967 30.1142 23.0596 30.2267C22.2666 30.3334 21.2676 30.3333 20.0696 30.3333H11.931C10.733 30.3333 9.73406 30.3334 8.94102 30.2267C8.10396 30.1142 7.34823 29.8666 6.74093 29.2594C6.13364 28.6521 5.88608 27.8963 5.77354 27.0593C5.66692 26.2662 5.66695 25.2673 5.66699 24.0693L5.66699 20.0677C3.28527 18.7683 1.66699 16.2407 1.66699 13.3333C1.66699 9.09911 5.09948 5.66663 9.33366 5.66663C9.44657 5.66663 9.55897 5.66907 9.6708 5.67392ZM9.07049 7.67263C6.06304 7.81011 3.66699 10.2919 3.66699 13.3333C3.66699 15.6554 5.06391 17.6535 7.06736 18.5289C7.43159 18.688 7.66699 19.0478 7.66699 19.4452V23H24.3337L24.3337 19.4452C24.3337 19.0478 24.5691 18.688 24.9333 18.5289C26.9367 17.6535 28.3337 15.6554 28.3337 13.3333C28.3337 10.2919 25.9376 7.81011 22.9302 7.67263C22.9764 7.99762 23.0003 8.32953 23.0003 8.66663V9.33329C23.0003 9.88558 22.5526 10.3333 22.0003 10.3333C21.448 10.3333 21.0003 9.88558 21.0003 9.33329V8.66663C21.0003 8.10282 20.9074 7.56279 20.7368 7.05977C20.0672 5.08532 18.1982 3.66663 16.0003 3.66663C13.8025 3.66663 11.9334 5.08532 11.2638 7.05977C11.0933 7.56279 11.0003 8.10282 11.0003 8.66663V9.33329C11.0003 9.88558 10.5526 10.3333 10.0003 10.3333C9.44804 10.3333 9.00033 9.88558 9.00033 9.33329V8.66663C9.00033 8.32953 9.02422 7.99763 9.07049 7.67263ZM24.3312 25H7.66941C7.67505 25.7592 7.69377 26.3321 7.75571 26.7928C7.83843 27.4081 7.98139 27.6714 8.15515 27.8451C8.3289 28.0189 8.59223 28.1619 9.20751 28.2446C9.85156 28.3312 10.715 28.3333 12.0003 28.3333H20.0003C21.2857 28.3333 22.1491 28.3312 22.7931 28.2446C23.4084 28.1619 23.6717 28.0189 23.8455 27.8451C24.0193 27.6714 24.1622 27.4081 24.2449 26.7928C24.3069 26.3321 24.3256 25.7592 24.3312 25ZM19.0061 11.5701C20.2504 12.0063 21.0003 13.204 21.0003 14.6669C21.0003 15.6934 20.4121 16.6018 19.8338 17.2704C19.2294 17.9693 18.4815 18.5816 17.8681 19.0317C17.837 19.0545 17.8057 19.0776 17.7741 19.101C17.3057 19.4473 16.7727 19.8414 16.0003 19.8414C15.2279 19.8414 14.6949 19.4473 14.2266 19.101C14.195 19.0776 14.1636 19.0545 14.1326 19.0317C13.5192 18.5816 12.7712 17.9693 12.1669 17.2704C11.5886 16.6018 11.0003 15.6934 11.0003 14.6669C11.0003 13.204 11.7503 12.0063 12.9945 11.5701C13.967 11.2292 15.0453 11.4216 16.0003 12.0504C16.9554 11.4216 18.0337 11.2292 19.0061 11.5701ZM18.3445 13.4575C18.0107 13.3405 17.3926 13.3778 16.6919 14.0487C16.3052 14.419 15.6955 14.419 15.3087 14.0487C14.608 13.3778 13.9899 13.3405 13.6562 13.4575C13.3504 13.5647 13.0003 13.8989 13.0003 14.6669C13.0003 14.9531 13.1886 15.3944 13.6796 15.9621C14.1444 16.4996 14.7584 17.0103 15.3157 17.4192C15.6174 17.6405 15.7606 17.7425 15.8751 17.803C15.9477 17.8413 15.9677 17.8414 16.0003 17.8414C16.0329 17.8414 16.053 17.8413 16.1255 17.803C16.2401 17.7425 16.3833 17.6405 16.6849 17.4192C17.2422 17.0103 17.8562 16.4996 18.321 15.9621C18.812 15.3944 19.0003 14.9531 19.0003 14.6669C19.0003 13.8989 18.6502 13.5647 18.3445 13.4575Z" fill="currentColor" />
    </symbol>
    <symbol id="magic-stick" width="100%" height="100%" viewBox="0 0 32 32" fill="none">
      <path d="M16.8252 5.03707C19.7227 3.18711 21.1715 2.26213 22.2853 2.83538C23.3991 3.40863 23.4403 5.10046 23.5227 8.48412L23.544 9.35951C23.5674 10.321 23.5791 10.8018 23.7773 11.217C23.9754 11.6322 24.3375 11.9349 25.0617 12.5402L25.7211 13.0912C28.2697 15.2213 29.544 16.2863 29.3053 17.5471C29.0666 18.8078 27.4731 19.4293 24.2859 20.6723L23.4614 20.9939C22.5557 21.3471 22.1029 21.5237 21.7633 21.8558C21.4237 22.1878 21.2358 22.6377 20.86 23.5375L20.5179 24.3567C19.1955 27.5231 18.5343 29.1063 17.273 29.3122C16.0117 29.5181 14.9856 28.2104 12.9334 25.595L12.4025 24.9183C11.8193 24.1751 11.5277 23.8035 11.1197 23.5935C10.7117 23.3835 10.2335 23.3589 9.27703 23.3097L8.40623 23.2649C5.04036 23.0918 3.35742 23.0053 2.81656 21.8718C2.2757 20.7383 3.23512 19.3086 5.15394 16.4492L5.65037 15.7094C6.19564 14.8969 6.46827 14.4906 6.5557 14.0287C6.64313 13.5669 6.53545 13.1018 6.3201 12.1716L6.12405 11.3248C5.36622 8.05136 4.98731 6.41467 5.91434 5.50822C6.84138 4.60177 8.46041 5.02588 11.6985 5.8741L12.5362 6.09354C13.4564 6.33458 13.9164 6.4551 14.3785 6.37966C14.8405 6.30423 15.2522 6.04138 16.0756 5.51568L16.8252 5.03707Z" stroke="currentColor" stroke-width="2" />
      <path d="M26.0401 24.6263C25.6496 24.2357 25.0164 24.2357 24.6259 24.6263C24.2354 25.0168 24.2354 25.65 24.6259 26.0405L26.0401 24.6263ZM27.2926 28.7071C27.6831 29.0977 28.3163 29.0977 28.7068 28.7071C29.0973 28.3166 29.0973 27.6835 28.7068 27.2929L27.2926 28.7071ZM24.6259 26.0405L27.2926 28.7071L28.7068 27.2929L26.0401 24.6263L24.6259 26.0405Z" fill="currentColor" />
    </symbol>
    <symbol id="calendar" width="100%" height="100%" viewBox="0 0 24 24" fill="none">
      <path d="M2 12C2 8.22876 2 6.34315 3.17157 5.17157C4.34315 4 6.22876 4 10 4H14C17.7712 4 19.6569 4 20.8284 5.17157C22 6.34315 22 8.22876 22 12V14C22 17.7712 22 19.6569 20.8284 20.8284C19.6569 22 17.7712 22 14 22H10C6.22876 22 4.34315 22 3.17157 20.8284C2 19.6569 2 17.7712 2 14V12Z" stroke="currentColor" stroke-width="1.5" />
      <path d="M7 4V2.5" stroke="currentColor" stroke-width="1.5" stroke-linecap="round" />
      <path d="M17 4V2.5" stroke="currentColor" stroke-width="1.5" stroke-linecap="round" />
      <path d="M2.5 9H21.5" stroke="currentColor" stroke-width="1.5" stroke-linecap="round" />
      <path d="M18 17C18 17.5523 17.5523 18 17 18C16.4477 18 16 17.5523 16 17C16 16.4477 16.4477 16 17 16C17.5523 16 18 16.4477 18 17Z" fill="currentColor" />
      <path d="M18 13C18 13.5523 17.5523 14 17 14C16.4477 14 16 13.5523 16 13C16 12.4477 16.4477 12 17 12C17.5523 12 18 12.4477 18 13Z" fill="currentColor" />
      <path d="M13 17C13 17.5523 12.5523 18 12 18C11.4477 18 11 17.5523 11 17C11 16.4477 11.4477 16 12 16C12.5523 16 13 16.4477 13 17Z" fill="currentColor" />
      <path d="M13 13C13 13.5523 12.5523 14 12 14C11.4477 14 11 13.5523 11 13C11 12.4477 11.4477 12 12 12C12.5523 12 13 12.4477 13 13Z" fill="currentColor" />
      <path d="M8 17C8 17.5523 7.55228 18 7 18C6.44772 18 6 17.5523 6 17C6 16.4477 6.44772 16 7 16C7.55228 16 8 16.4477 8 17Z" fill="currentColor" />
      <path d="M8 13C8 13.5523 7.55228 14 7 14C6.44772 14 6 13.5523 6 13C6 12.4477 6.44772 12 7 12C7.55228 12 8 12.4477 8 13Z" fill="currentColor" />
    </symbol>
    <!--  -->
    <!--  -->
    <!--  -->
  </defs>
</svg>