<svg width="1298" height="404" viewBox="0 0 1298 404" fill="none" xmlns="http://www.w3.org/2000/svg">
<g opacity="0.4">
<path opacity="0.5" fill-rule="evenodd" clip-rule="evenodd" d="M438.108 590.293C523.873 637.592 653.198 597.236 767.473 594.012C884.708 590.703 1012.84 679.14 1115.2 571.187C1233.18 446.765 1075.92 293.456 1179.8 159.158C1311.9 -11.622 1651.17 -0.803304 1699.21 -183.812C1742.23 -347.665 1437.28 -249.626 1290.36 -261.956C1217.11 -268.102 1135.03 -235.772 1059.84 -237.466C976.005 -239.354 917.206 -286.49 828.068 -272.369C667.94 -247.003 480.442 -266.121 346.541 -124.469C220.328 9.05036 251.611 183.565 268.973 319.092C284.369 439.276 341.741 537.147 438.108 590.293Z" stroke="#C8A070"/>
<path fill-rule="evenodd" clip-rule="evenodd" d="M480.767 636.144C566.532 683.443 695.857 643.087 810.133 639.863C927.367 636.555 1055.5 724.991 1157.86 617.038C1275.84 492.616 1118.58 339.307 1222.46 205.009C1354.56 34.229 1693.83 45.0477 1741.87 -137.961C1784.89 -301.814 1479.94 -203.775 1333.02 -216.105C1259.77 -222.251 1177.69 -189.921 1102.5 -191.615C1018.66 -193.503 959.865 -240.639 870.727 -226.518C710.599 -201.152 523.101 -220.27 389.2 -78.6183C262.987 54.9014 294.27 229.416 311.632 364.943C327.029 485.127 384.4 582.998 480.767 636.144Z" stroke="#C8A070"/>
<path opacity="0.2" fill-rule="evenodd" clip-rule="evenodd" d="M414.196 566.381C499.961 613.679 629.286 573.324 743.562 570.099C860.796 566.791 988.927 655.227 1091.29 547.274C1209.26 422.852 1052.01 269.543 1155.89 135.245C1287.99 -35.5343 1627.26 -24.7156 1675.3 -207.724C1718.32 -371.578 1413.37 -273.539 1266.45 -285.868C1193.2 -292.014 1111.12 -259.684 1035.93 -261.378C952.093 -263.266 893.294 -310.402 804.156 -296.281C644.028 -270.915 456.53 -290.033 322.629 -148.382C196.416 -14.862 227.699 159.652 245.061 295.18C260.457 415.363 317.829 513.235 414.196 566.381Z" stroke="#C8A070"/>
<path opacity="0.4" fill-rule="evenodd" clip-rule="evenodd" d="M426.152 578.337C511.917 625.636 641.242 585.28 755.517 582.056C872.751 578.748 1000.88 667.184 1103.24 559.231C1221.22 434.809 1063.96 281.5 1167.84 147.202C1299.95 -23.5781 1639.21 -12.7594 1687.26 -195.768C1730.27 -359.622 1425.32 -261.583 1278.4 -273.912C1205.15 -280.058 1123.07 -247.728 1047.88 -249.422C964.048 -251.31 905.25 -298.446 816.112 -284.325C655.984 -258.959 468.485 -278.077 334.585 -136.425C208.372 -2.9057 239.655 171.609 257.017 307.136C272.413 427.32 329.784 525.191 426.152 578.337Z" stroke="#C8A070"/>
</g>
</svg>
