<svg width="952" height="550" viewBox="0 0 952 550" fill="none" xmlns="http://www.w3.org/2000/svg">
<path opacity="0.5" fill-rule="evenodd" clip-rule="evenodd" d="M-467.892 590.293C-382.127 637.592 -252.802 597.236 -138.527 594.012C-21.2923 590.703 106.839 679.14 209.199 571.187C327.176 446.765 169.918 293.456 273.801 159.157C405.904 -11.6221 745.168 -0.803395 793.213 -183.812C836.23 -347.665 531.278 -249.627 384.357 -261.956C311.111 -268.102 229.029 -235.772 153.839 -237.466C70.0047 -239.354 11.2062 -286.49 -77.932 -272.369C-238.06 -247.003 -425.558 -266.121 -559.459 -124.469C-685.672 9.05027 -654.389 183.564 -637.027 319.092C-621.631 439.275 -564.259 537.147 -467.892 590.293Z" stroke="#C8A070"/>
<path fill-rule="evenodd" clip-rule="evenodd" d="M-425.233 636.144C-339.468 683.443 -210.143 643.087 -95.8673 639.863C21.3669 636.554 149.498 724.991 251.859 617.038C369.835 492.616 212.577 339.307 316.46 205.009C448.564 34.2289 787.827 45.0477 835.873 -137.961C878.889 -301.814 573.937 -203.776 427.016 -216.105C353.77 -222.251 271.688 -189.921 196.498 -191.615C112.664 -193.503 53.8653 -240.639 -35.2728 -226.518C-195.401 -201.152 -382.899 -220.27 -516.8 -78.6183C-643.013 54.9013 -611.73 229.416 -594.368 364.943C-578.971 485.127 -521.6 582.998 -425.233 636.144Z" stroke="#C8A070"/>
<path opacity="0.2" fill-rule="evenodd" clip-rule="evenodd" d="M-491.804 566.381C-406.039 613.679 -276.714 573.324 -162.438 570.099C-45.2041 566.791 82.927 655.227 185.288 547.274C303.264 422.852 146.006 269.543 249.89 135.245C381.993 -35.5344 721.256 -24.7156 769.302 -207.724C812.319 -371.578 507.366 -273.539 360.445 -285.868C287.199 -292.014 205.117 -259.684 129.927 -261.378C46.0929 -263.266 -12.7057 -310.402 -101.844 -296.281C-261.972 -270.915 -449.47 -290.034 -583.371 -148.382C-709.584 -14.862 -678.301 159.652 -660.939 295.18C-645.543 415.363 -588.171 513.235 -491.804 566.381Z" stroke="#C8A070"/>
<path opacity="0.4" fill-rule="evenodd" clip-rule="evenodd" d="M-479.848 578.337C-394.083 625.636 -264.758 585.281 -150.483 582.056C-33.2487 578.748 94.8824 667.184 197.243 559.231C315.22 434.809 157.961 281.5 261.845 147.202C393.948 -23.578 733.211 -12.7593 781.257 -195.768C824.274 -359.621 519.321 -261.583 372.4 -273.912C299.155 -280.058 217.072 -247.728 141.883 -249.422C58.0483 -251.31 -0.750199 -298.446 -89.8883 -284.325C-250.016 -258.959 -437.515 -278.077 -571.415 -136.425C-697.628 -2.90561 -666.345 171.609 -648.983 307.136C-633.587 427.32 -576.216 525.191 -479.848 578.337Z" stroke="#C8A070"/>
</svg>
